<svg width="173" height="55" viewBox="0 0 173 55" fill="none" xmlns="http://www.w3.org/2000/svg">
<g filter="url(#filter0_d_69_177)">
<path d="M4.11526 5.488C4.11526 4.29333 4.56326 3.29067 5.45926 2.48C6.39793 1.62666 7.52859 1.2 8.85126 1.2H37.9713C37.9713 4.016 37.5019 6.064 36.5633 7.344C35.6246 8.624 34.1099 9.264 32.0193 9.264H13.5233V19.056H30.2913C30.2913 21.872 29.8219 23.92 28.8833 25.2C27.9446 26.48 26.4299 27.12 24.3393 27.12H13.5233V40.112C13.5233 42.3733 12.7766 44.016 11.2833 45.04C9.83259 46.064 7.44326 46.576 4.11526 46.576V5.488Z" fill="white"/>
<path d="M4.11526 5.488C4.11526 4.29333 4.56326 3.29067 5.45926 2.48C6.39793 1.62666 7.52859 1.2 8.85126 1.2H37.9713C37.9713 4.016 37.5019 6.064 36.5633 7.344C35.6246 8.624 34.1099 9.264 32.0193 9.264H13.5233V19.056H30.2913C30.2913 21.872 29.8219 23.92 28.8833 25.2C27.9446 26.48 26.4299 27.12 24.3393 27.12H13.5233V40.112C13.5233 42.3733 12.7766 44.016 11.2833 45.04C9.83259 46.064 7.44326 46.576 4.11526 46.576V5.488Z" fill="#A62FF5"/>
<path d="M44.7003 5.616C44.7003 4.03733 45.2336 2.82133 46.3003 1.968C47.3669 1.072 48.8389 0.623997 50.7163 0.623997L66.2043 37.808L64.9883 40.816L65.4363 41.008L81.8203 0.623997C83.6976 0.623997 85.1696 1.072 86.2363 1.968C87.3456 2.864 87.9003 4.10133 87.9003 5.68V46.576C83.9323 46.576 81.9483 44.9333 81.9483 41.648V14.704L83.6123 10.288L83.1003 10.16L68.8283 44.848C68.6149 45.36 68.2736 45.7653 67.8043 46.064C67.3349 46.4053 66.8443 46.576 66.3323 46.576C65.7776 46.576 65.2656 46.4267 64.7963 46.128C64.3269 45.8293 63.9856 45.4027 63.7723 44.848L49.5003 10.096L48.9883 10.288L50.6523 14.64V41.648C50.6523 43.2693 50.1403 44.5067 49.1163 45.36C48.1349 46.1707 46.6629 46.576 44.7003 46.576V5.616ZM99.9598 46C99.1064 46 98.3811 45.744 97.7838 45.232C97.1864 44.6773 96.8878 43.9947 96.8878 43.184V4.016C96.8878 3.20533 97.1651 2.544 97.7198 2.032C98.3171 1.47733 99.0638 1.2 99.9598 1.2H114.936C118.562 1.2 121.762 1.88266 124.536 3.248C127.309 4.61333 129.464 6.53333 131 9.008C132.578 11.44 133.368 14.2347 133.368 17.392V29.68C133.368 32.8373 132.578 35.6533 131 38.128C129.464 40.6027 127.288 42.544 124.472 43.952C121.698 45.3173 118.52 46 114.936 46H99.9598ZM114.296 40.752C118.392 40.752 121.592 39.792 123.896 37.872C126.2 35.9093 127.352 33.2 127.352 29.744V17.328C127.352 13.9147 126.2 11.248 123.896 9.328C121.592 7.408 118.392 6.448 114.296 6.448H102.904V40.752H114.296ZM141.7 4.976C141.7 2.07466 143.578 0.623997 147.332 0.623997V16.24C146.692 16.7947 146.244 17.264 145.988 17.648L146.18 17.968C147.46 16.6027 149.018 15.5147 150.852 14.704C152.73 13.8507 154.564 13.424 156.356 13.424C160.154 13.424 163.183 14.4267 165.444 16.432C167.706 18.4373 168.836 21.1253 168.836 24.496V35.44C168.836 37.5733 168.303 39.4933 167.236 41.2C166.212 42.9067 164.762 44.2293 162.884 45.168C161.007 46.1067 158.874 46.576 156.484 46.576C152.303 46.576 148.783 44.7413 145.924 41.072L145.732 41.328C145.988 41.712 146.415 42.2453 147.012 42.928C147.012 44.1653 146.586 45.0827 145.732 45.68C144.879 46.2773 143.535 46.576 141.7 46.576V4.976ZM155.268 41.648C157.871 41.648 159.855 41.0933 161.22 39.984C162.628 38.8747 163.332 37.2747 163.332 35.184V24.752C163.332 22.7467 162.628 21.1893 161.22 20.08C159.812 18.928 157.85 18.352 155.332 18.352C153.114 18.352 151.215 18.9493 149.636 20.144C148.058 21.3387 147.268 22.768 147.268 24.432V35.504C147.268 37.2533 148.036 38.7253 149.572 39.92C151.108 41.072 153.007 41.648 155.268 41.648Z" fill="white"/>
</g>
<defs>
<filter id="filter0_d_69_177" x="0.115234" y="0.624023" width="172.721" height="53.9521" filterUnits="userSpaceOnUse" color-interpolation-filters="sRGB">
<feFlood flood-opacity="0" result="BackgroundImageFix"/>
<feColorMatrix in="SourceAlpha" type="matrix" values="0 0 0 0 0 0 0 0 0 0 0 0 0 0 0 0 0 0 127 0" result="hardAlpha"/>
<feOffset dy="4"/>
<feGaussianBlur stdDeviation="2"/>
<feComposite in2="hardAlpha" operator="out"/>
<feColorMatrix type="matrix" values="0 0 0 0 1 0 0 0 0 1 0 0 0 0 1 0 0 0 0.3 0"/>
<feBlend mode="normal" in2="BackgroundImageFix" result="effect1_dropShadow_69_177"/>
<feBlend mode="normal" in="SourceGraphic" in2="effect1_dropShadow_69_177" result="shape"/>
</filter>
</defs>
</svg>
